<svg width="22" height="17" viewBox="0 0 22 17" fill="none" xmlns="http://www.w3.org/2000/svg">
<path d="M5.5812 15.9983C3.69534 15.9983 2.44022 15.2625 1.71039 14.5292C1.13707 13.9532 0.985822 13.1114 1.06505 12.3025C1.30038 9.9002 2.15678 6.77297 3.34945 4.48675C4.75904 1.78475 6.75595 0.492797 8.63539 1.66745C9.7104 2.33933 10.0889 3.21141 10.1743 3.85433C10.23 4.27319 10.1624 4.6998 10.1624 5.12235V12.3001C10.1624 13.1128 10.0254 13.9532 9.45201 14.5293C8.72216 15.2625 7.46704 15.9983 5.5812 15.9983Z" fill="white" stroke="#312F2F" stroke-linejoin="round"/>
<path d="M16.4793 15.9983C18.3652 15.9983 19.6203 15.2625 20.3502 14.5292C20.9235 13.9532 21.0747 13.1114 20.9955 12.3025C20.7602 9.9002 19.9038 6.77297 18.7111 4.48675C17.3015 1.78475 15.3046 0.492797 13.4252 1.66745C12.3501 2.33933 11.9717 3.21141 11.8862 3.85433C11.8305 4.27319 11.8981 4.6998 11.8981 5.12235V12.3001C11.8981 13.1128 12.0352 13.9532 12.6085 14.5293C13.3384 15.2625 14.5935 15.9983 16.4793 15.9983Z" fill="white" stroke="#312F2F" stroke-linejoin="round"/>
<mask id="path-3-outside-1_609_11790" maskUnits="userSpaceOnUse" x="6.58398" y="6.66211" width="9" height="4" fill="black">
<rect fill="white" x="6.58398" y="6.66211" width="9" height="4"/>
<path d="M6.58398 7.66211H15.4747V9.57033H6.58398V7.66211Z"/>
</mask>
<path d="M6.58398 7.66211H15.4747V9.57033H6.58398V7.66211Z" fill="white"/>
<path d="M6.58398 8.66211H15.4747V6.66211H6.58398V8.66211ZM15.4747 8.57033H6.58398V10.5703H15.4747V8.57033Z" fill="#312F2F" mask="url(#path-3-outside-1_609_11790)"/>
<mask id="path-5-outside-2_609_11790" maskUnits="userSpaceOnUse" x="8.98437" y="-1.31134e-07" width="4" height="8" fill="black">
<rect fill="white" x="8.98437" y="-1.31134e-07" width="4" height="8"/>
<path d="M11.9844 0L11.9844 7.66262L10.0762 7.66262L10.0762 -8.34109e-08L11.9844 0Z"/>
</mask>
<path d="M11.9844 0L11.9844 7.66262L10.0762 7.66262L10.0762 -8.34109e-08L11.9844 0Z" fill="white"/>
<path d="M10.9844 -4.37114e-08L10.9844 7.66262L12.9844 7.66262L12.9844 4.37114e-08L10.9844 -4.37114e-08ZM11.0762 7.66262L11.0762 -3.96996e-08L9.07616 -1.27122e-07L9.07615 7.66262L11.0762 7.66262Z" fill="#312F2F" mask="url(#path-5-outside-2_609_11790)"/>
</svg>