<svg width="20" height="19" viewBox="0 0 20 19" fill="none" xmlns="http://www.w3.org/2000/svg">
<mask id="path-1-inside-1_609_11827" fill="white">
<path fill-rule="evenodd" clip-rule="evenodd" d="M9.91192 17.9198C11.875 17.9198 13.6905 17.2885 15.1667 16.2178C15.5961 16.5242 16.1217 16.7044 16.6894 16.7044C18.139 16.7044 19.3142 15.5292 19.3142 14.0795C19.3142 13.2513 18.9306 12.5127 18.3314 12.0317C18.681 11.0735 18.8718 10.039 18.8718 8.95989C18.8718 8.2672 18.7932 7.59287 18.6444 6.94533C19.0683 6.28672 19.3142 5.50275 19.3142 4.66133C19.3142 2.3273 17.4221 0.435202 15.088 0.435202C14.5247 0.435202 13.9871 0.545418 13.4957 0.745463C12.3982 0.265986 11.1861 0 9.91192 0C8.17777 0 6.55869 0.492659 5.187 1.34565C4.88063 1.22032 4.54529 1.15124 4.19381 1.15124C2.74417 1.15124 1.56901 2.32641 1.56901 3.77605C1.56901 4.2185 1.67848 4.63538 1.87182 5.00108C1.28291 6.19485 0.952038 7.53873 0.952038 8.95989C0.952038 9.45831 0.992736 9.94722 1.07099 10.4235C0.404837 11.1705 0 12.1556 0 13.2352C0 15.5313 1.83116 17.3998 4.1128 17.4598C4.5771 18.1992 5.39979 18.6907 6.33728 18.6907C7.13189 18.6907 7.84402 18.3376 8.32536 17.7797C8.84031 17.8717 9.37051 17.9198 9.91192 17.9198Z"/>
</mask>
<path fill-rule="evenodd" clip-rule="evenodd" d="M9.91192 17.9198C11.875 17.9198 13.6905 17.2885 15.1667 16.2178C15.5961 16.5242 16.1217 16.7044 16.6894 16.7044C18.139 16.7044 19.3142 15.5292 19.3142 14.0795C19.3142 13.2513 18.9306 12.5127 18.3314 12.0317C18.681 11.0735 18.8718 10.039 18.8718 8.95989C18.8718 8.2672 18.7932 7.59287 18.6444 6.94533C19.0683 6.28672 19.3142 5.50275 19.3142 4.66133C19.3142 2.3273 17.4221 0.435202 15.088 0.435202C14.5247 0.435202 13.9871 0.545418 13.4957 0.745463C12.3982 0.265986 11.1861 0 9.91192 0C8.17777 0 6.55869 0.492659 5.187 1.34565C4.88063 1.22032 4.54529 1.15124 4.19381 1.15124C2.74417 1.15124 1.56901 2.32641 1.56901 3.77605C1.56901 4.2185 1.67848 4.63538 1.87182 5.00108C1.28291 6.19485 0.952038 7.53873 0.952038 8.95989C0.952038 9.45831 0.992736 9.94722 1.07099 10.4235C0.404837 11.1705 0 12.1556 0 13.2352C0 15.5313 1.83116 17.3998 4.1128 17.4598C4.5771 18.1992 5.39979 18.6907 6.33728 18.6907C7.13189 18.6907 7.84402 18.3376 8.32536 17.7797C8.84031 17.8717 9.37051 17.9198 9.91192 17.9198Z" fill="white"/>
<path d="M15.1667 16.2178L15.7475 15.4038L15.1619 14.986L14.5796 15.4083L15.1667 16.2178ZM18.3314 12.0317L17.392 11.6888L17.1461 12.3625L17.7053 12.8114L18.3314 12.0317ZM18.6444 6.94533L17.8035 6.40415L17.5755 6.75853L17.6698 7.16925L18.6444 6.94533ZM13.4957 0.745463L13.0953 1.66182L13.482 1.83073L13.8727 1.67167L13.4957 0.745463ZM5.187 1.34565L4.80838 2.2712L5.28123 2.46464L5.71508 2.19485L5.187 1.34565ZM1.87182 5.00108L2.76863 5.4435L2.99464 4.98534L2.75588 4.5337L1.87182 5.00108ZM1.07099 10.4235L1.81733 11.0891L2.13519 10.7326L2.05776 10.2614L1.07099 10.4235ZM4.1128 17.4598L4.95967 16.928L4.67473 16.4743L4.13912 16.4602L4.1128 17.4598ZM8.32536 17.7797L8.50126 16.7953L7.94042 16.6951L7.56824 17.1265L8.32536 17.7797ZM14.5796 15.4083C13.2684 16.3593 11.6571 16.9198 9.91192 16.9198V18.9198C12.0928 18.9198 14.1127 18.2177 15.7539 17.0274L14.5796 15.4083ZM16.6894 15.7044C16.3367 15.7044 16.013 15.5931 15.7475 15.4038L14.586 17.0319C15.1793 17.4552 15.9067 17.7044 16.6894 17.7044V15.7044ZM18.3142 14.0795C18.3142 14.9769 17.5867 15.7044 16.6894 15.7044V17.7044C18.6913 17.7044 20.3142 16.0815 20.3142 14.0795H18.3142ZM17.7053 12.8114C18.0783 13.1109 18.3142 13.5673 18.3142 14.0795H20.3142C20.3142 12.9354 19.7829 11.9146 18.9574 11.2519L17.7053 12.8114ZM17.8718 8.95989C17.8718 9.92036 17.7021 10.839 17.392 11.6888L19.2708 12.3745C19.6599 11.3081 19.8718 10.1576 19.8718 8.95989H17.8718ZM17.6698 7.16925C17.8018 7.74385 17.8718 8.34308 17.8718 8.95989H19.8718C19.8718 8.19131 19.7846 7.44188 19.619 6.7214L17.6698 7.16925ZM18.3142 4.66133C18.3142 5.30514 18.1266 5.90208 17.8035 6.40415L19.4853 7.4865C20.0099 6.67136 20.3142 5.70035 20.3142 4.66133H18.3142ZM15.088 1.4352C16.8698 1.4352 18.3142 2.87959 18.3142 4.66133H20.3142C20.3142 1.77502 17.9744 -0.564798 15.088 -0.564798V1.4352ZM13.8727 1.67167C14.2465 1.51952 14.6562 1.4352 15.088 1.4352V-0.564798C14.3933 -0.564798 13.7278 -0.428687 13.1187 -0.180745L13.8727 1.67167ZM9.91192 1C11.0458 1 12.1218 1.23647 13.0953 1.66182L13.8961 -0.170899C12.6747 -0.704497 11.3265 -1 9.91192 -1V1ZM5.71508 2.19485C6.93286 1.43756 8.36977 1 9.91192 1V-1C7.98578 -1 6.18452 -0.452243 4.65892 0.496456L5.71508 2.19485ZM4.19381 2.15124C4.41322 2.15124 4.62011 2.19419 4.80838 2.2712L5.56562 0.420101C5.14115 0.246459 4.67736 0.15124 4.19381 0.15124V2.15124ZM2.56901 3.77605C2.56901 2.87869 3.29646 2.15124 4.19381 2.15124V0.15124C2.19189 0.15124 0.569006 1.77412 0.569006 3.77605H2.56901ZM2.75588 4.5337C2.63684 4.30854 2.56901 4.05169 2.56901 3.77605H0.569006C0.569006 4.38531 0.720124 4.96222 0.98776 5.46846L2.75588 4.5337ZM1.95204 8.95989C1.95204 7.69553 2.24609 6.50272 2.76863 5.4435L0.975007 4.55867C0.319722 5.88698 -0.047962 7.38192 -0.047962 8.95989H1.95204ZM2.05776 10.2614C1.98828 9.83848 1.95204 9.40378 1.95204 8.95989H-0.047962C-0.047962 9.51283 -0.00280502 10.056 0.0842196 10.5856L2.05776 10.2614ZM1 13.2352C1 12.4104 1.30822 11.6599 1.81733 11.0891L0.324651 9.75793C-0.498548 10.681 -1 11.9007 -1 13.2352H1ZM4.13912 16.4602C2.39789 16.4143 1 14.9878 1 13.2352H-1C-1 16.0748 1.26444 18.3852 4.08648 18.4595L4.13912 16.4602ZM6.33728 17.6907C5.75805 17.6907 5.2487 17.3883 4.95967 16.928L3.26593 17.9916C3.90549 19.0101 5.04153 19.6907 6.33728 19.6907V17.6907ZM7.56824 17.1265C7.26877 17.4735 6.82894 17.6907 6.33728 17.6907V19.6907C7.43483 19.6907 8.41928 19.2016 9.08247 18.433L7.56824 17.1265ZM9.91192 16.9198C9.42975 16.9198 8.95842 16.877 8.50126 16.7953L8.14946 18.7641C8.72221 18.8665 9.31126 18.9198 9.91192 18.9198V16.9198Z" fill="#312F2F" mask="url(#path-1-inside-1_609_11827)"/>
<circle cx="7.27241" cy="11.6943" r="1.88374" fill="white" stroke="#312F2F"/>
<circle cx="12.1168" cy="10.2398" r="3.72613" fill="white" stroke="#312F2F"/>
<circle cx="6.5771" cy="5.6728" r="1.88374" fill="white" stroke="#312F2F"/>
</svg>