<svg width="47" height="47" viewBox="0 0 47 47" fill="none" xmlns="http://www.w3.org/2000/svg">
<path d="M41.125 2.9375C41.9041 2.9375 42.6512 3.24699 43.2021 3.79787C43.753 4.34876 44.0625 5.09593 44.0625 5.875V29.375C44.0625 30.1541 43.753 30.9012 43.2021 31.4521C42.6512 32.003 41.9041 32.3125 41.125 32.3125H12.9661C11.4081 32.3128 9.91402 32.932 8.8125 34.0339L2.9375 39.9089V5.875C2.9375 5.09593 3.24699 4.34876 3.79787 3.79787C4.34876 3.24699 5.09593 2.9375 5.875 2.9375H41.125ZM5.875 0C4.31685 0 2.82252 0.618972 1.72075 1.72075C0.618972 2.82252 0 4.31685 0 5.875L0 43.4544C6.17312e-05 43.7451 0.0863407 44.0291 0.247917 44.2707C0.409493 44.5123 0.639103 44.7005 0.907686 44.8115C1.17627 44.9225 1.47175 44.9513 1.75673 44.8944C2.04171 44.8374 2.30338 44.6971 2.50863 44.4914L10.8893 36.1107C11.4401 35.5598 12.1871 35.2502 12.9661 35.25H41.125C42.6831 35.25 44.1775 34.631 45.2793 33.5293C46.381 32.4275 47 30.9331 47 29.375V5.875C47 4.31685 46.381 2.82252 45.2793 1.72075C44.1775 0.618972 42.6831 0 41.125 0L5.875 0Z" fill="#CDCDCD"/>
<path d="M20.7564 13.9825C20.1842 13.0914 19.3383 12.4101 18.3457 12.041C17.3531 11.6719 16.2675 11.6349 15.2521 11.9356C14.2367 12.2363 13.3463 12.8585 12.7148 13.7086C12.0833 14.5587 11.7447 15.5908 11.7501 16.6498C11.7506 17.5267 11.9866 18.3874 12.4334 19.142C12.8803 19.8965 13.5216 20.5173 14.2903 20.9393C15.059 21.3613 15.927 21.5692 16.8034 21.5411C17.6799 21.5131 18.5328 21.2502 19.273 20.7799C18.8882 21.9226 18.1714 23.1416 16.9906 24.3636C16.7646 24.5974 16.6408 24.9113 16.6463 25.2363C16.6518 25.5613 16.7862 25.8708 17.0199 26.0968C17.2537 26.3227 17.5676 26.4465 17.8926 26.441C18.2176 26.4355 18.5271 26.3011 18.7531 26.0674C23.1182 21.5436 22.5512 16.6263 20.7564 13.9884V13.9825ZM32.5064 13.9825C31.9342 13.0914 31.0883 12.4101 30.0957 12.041C29.1031 11.6719 28.0175 11.6349 27.0021 11.9356C25.9867 12.2363 25.0963 12.8585 24.4648 13.7086C23.8333 14.5587 23.4947 15.5908 23.5001 16.6498C23.5006 17.5267 23.7366 18.3874 24.1834 19.142C24.6303 19.8965 25.2716 20.5173 26.0403 20.9393C26.809 21.3613 27.6769 21.5692 28.5534 21.5411C29.4299 21.5131 30.2828 21.2502 31.023 20.7799C30.6382 21.9226 29.9214 23.1416 28.7406 24.3636C28.5146 24.5974 28.3908 24.9113 28.3963 25.2363C28.4018 25.5613 28.5362 25.8708 28.7699 26.0968C29.0037 26.3227 29.3176 26.4465 29.6426 26.441C29.9676 26.4355 30.2771 26.3011 30.5031 26.0674C34.8682 21.5436 34.3012 16.6263 32.5064 13.9884V13.9825Z" fill="#F37C1F"/>
</svg>