<svg width="18" height="16" viewBox="0 0 18 16" fill="none" xmlns="http://www.w3.org/2000/svg">
<path d="M8.81079 3.0968C8.81079 4.53097 7.64816 5.6936 6.21399 5.6936C4.77981 5.6936 3.61719 4.53097 3.61719 3.0968C3.61719 1.66263 4.77981 0.5 6.21399 0.5C7.64816 0.5 8.81079 1.66263 8.81079 3.0968Z" fill="white" stroke="#312F2F"/>
<path d="M5.6936 6.19446C5.6936 7.62863 4.53097 8.79126 3.0968 8.79126C1.66263 8.79126 0.5 7.62863 0.5 6.19446C0.5 4.76028 1.66263 3.59766 3.0968 3.59766C4.53097 3.59766 5.6936 4.76028 5.6936 6.19446Z" fill="white" stroke="#312F2F"/>
<circle cx="10.8409" cy="3.37023" r="2.87023" fill="white" stroke="#312F2F"/>
<circle cx="13.9601" cy="7.38781" r="2.87023" fill="white" stroke="#312F2F"/>
<path d="M8.81102 10.2121C8.81102 12.1544 7.23648 13.729 5.29418 13.729C3.35189 13.729 1.77734 12.1544 1.77734 10.2121C1.77734 8.26985 3.35189 6.69531 5.29418 6.69531C7.23648 6.69531 8.81102 8.26985 8.81102 10.2121Z" fill="white" stroke="#312F2F"/>
<path d="M11.8559 6.74145C11.8559 8.68374 10.2814 10.2583 8.3391 10.2583C6.39681 10.2583 4.82227 8.68374 4.82227 6.74145C4.82227 4.79915 6.39681 3.22461 8.3391 3.22461C10.2814 3.22461 11.8559 4.79915 11.8559 6.74145Z" fill="white" stroke="#312F2F"/>
<circle cx="10.8407" cy="11.37" r="4.12977" fill="white" stroke="#312F2F"/>
</svg>