<svg width="23" height="20" viewBox="0 0 23 20" fill="none" xmlns="http://www.w3.org/2000/svg">
<mask id="path-1-inside-1_609_11818" fill="white">
<path fill-rule="evenodd" clip-rule="evenodd" d="M12.0615 2.00112C11.1953 0.789635 9.77685 0 8.17398 0C5.53639 0 3.39819 2.13819 3.39819 4.77578C3.39819 5.17093 3.44618 5.55486 3.53665 5.92207C1.51307 6.37169 0 8.17726 0 10.3362C0 12.8335 2.02446 14.858 4.52177 14.858H17.5482C20.0455 14.858 22.0699 12.8335 22.0699 10.3362C22.0699 8.1484 20.5162 6.32349 18.4519 5.90478C18.1658 3.54055 16.1523 1.70863 13.7109 1.70863C13.1312 1.70863 12.5756 1.81193 12.0615 2.00112Z"/>
</mask>
<path fill-rule="evenodd" clip-rule="evenodd" d="M12.0615 2.00112C11.1953 0.789635 9.77685 0 8.17398 0C5.53639 0 3.39819 2.13819 3.39819 4.77578C3.39819 5.17093 3.44618 5.55486 3.53665 5.92207C1.51307 6.37169 0 8.17726 0 10.3362C0 12.8335 2.02446 14.858 4.52177 14.858H17.5482C20.0455 14.858 22.0699 12.8335 22.0699 10.3362C22.0699 8.1484 20.5162 6.32349 18.4519 5.90478C18.1658 3.54055 16.1523 1.70863 13.7109 1.70863C13.1312 1.70863 12.5756 1.81193 12.0615 2.00112Z" fill="white"/>
<path d="M12.0615 2.00112L11.2481 2.58275L11.6915 3.20288L12.4069 2.93959L12.0615 2.00112ZM3.53665 5.92207L3.75355 6.89827L4.75237 6.67634L4.50762 5.68287L3.53665 5.92207ZM18.4519 5.90478L17.4591 6.02489L17.5458 6.74135L18.2531 6.88482L18.4519 5.90478ZM12.875 1.41949C11.8291 -0.0432784 10.1133 -1 8.17398 -1V1C9.44044 1 10.5615 1.62255 11.2481 2.58275L12.875 1.41949ZM8.17398 -1C4.9841 -1 2.39819 1.58591 2.39819 4.77578H4.39819C4.39819 2.69048 6.08867 1 8.17398 1V-1ZM2.39819 4.77578C2.39819 5.25217 2.45608 5.7164 2.56568 6.16128L4.50762 5.68287C4.43628 5.39331 4.39819 5.08968 4.39819 4.77578H2.39819ZM3.31975 4.94588C0.848445 5.49497 -1 7.69855 -1 10.3362H1C1 8.65596 2.17769 7.2484 3.75355 6.89827L3.31975 4.94588ZM-1 10.3362C-1 13.3858 1.47218 15.858 4.52177 15.858V13.858C2.57675 13.858 1 12.2812 1 10.3362H-1ZM4.52177 15.858H17.5482V13.858H4.52177V15.858ZM17.5482 15.858C20.5978 15.858 23.0699 13.3858 23.0699 10.3362H21.0699C21.0699 12.2812 19.4932 13.858 17.5482 13.858V15.858ZM23.0699 10.3362C23.0699 7.6634 21.1719 5.43613 18.6507 4.92473L18.2531 6.88482C19.8604 7.21085 21.0699 8.63341 21.0699 10.3362H23.0699ZM13.7109 2.70863C15.6404 2.70863 17.2331 4.15674 17.4591 6.02489L19.4447 5.78466C19.0986 2.92435 16.6643 0.708631 13.7109 0.708631V2.70863ZM12.4069 2.93959C12.812 2.79049 13.2508 2.70863 13.7109 2.70863V0.708631C13.0116 0.708631 12.3392 0.833362 11.7161 1.06266L12.4069 2.93959Z" fill="#312F2F" mask="url(#path-1-inside-1_609_11818)"/>
<path d="M6.65267 10.7542L6.18453 11.516H7.07866H8.06264L6.16029 15.796L5.40021 17.506L6.91191 16.403L13.741 11.4199L14.9798 10.516H13.4463H12.1657L13.8624 7.97069L14.3805 7.19336H13.4463H9.12054H8.84094L8.69455 7.43157L6.65267 10.7542Z" fill="white" stroke="#312F2F"/>
</svg>