<svg width="16" height="17" viewBox="0 0 16 17" fill="none" xmlns="http://www.w3.org/2000/svg">
<path d="M7.98221 4.22852C8.77421 4.22852 9.41421 4.45252 9.90221 4.90052C10.3902 5.34852 10.6342 5.94852 10.6342 6.70052C10.6342 7.54052 10.3742 8.16452 9.85421 8.57252C9.33421 8.97252 8.63021 9.17252 7.74221 9.17252L7.70621 10.3125H6.75821L6.71021 8.41652H7.05821C7.85021 8.41652 8.47021 8.29652 8.91821 8.05652C9.36621 7.81652 9.59021 7.36452 9.59021 6.70052C9.59021 6.22052 9.44621 5.84052 9.15821 5.56052C8.87021 5.28052 8.48221 5.14052 7.99421 5.14052C7.49821 5.14052 7.10621 5.27652 6.81821 5.54852C6.53821 5.81252 6.39821 6.17652 6.39821 6.64052H5.36621C5.36621 6.16052 5.47421 5.74052 5.69021 5.38052C5.90621 5.01252 6.21021 4.72852 6.60221 4.52852C7.00221 4.32852 7.46221 4.22852 7.98221 4.22852ZM7.22621 12.7725C7.01821 12.7725 6.84221 12.7005 6.69821 12.5565C6.55421 12.4125 6.48221 12.2365 6.48221 12.0285C6.48221 11.8205 6.55421 11.6445 6.69821 11.5005C6.84221 11.3565 7.01821 11.2845 7.22621 11.2845C7.42621 11.2845 7.59421 11.3565 7.73021 11.5005C7.87421 11.6445 7.94621 11.8205 7.94621 12.0285C7.94621 12.2365 7.87421 12.4125 7.73021 12.5565C7.59421 12.7005 7.42621 12.7725 7.22621 12.7725Z" fill="#312F2F"/>
<circle cx="8" cy="8.5" r="7.5" stroke="#312F2F"/>
</svg>