<svg width="22" height="16" viewBox="0 0 22 16" fill="none" xmlns="http://www.w3.org/2000/svg">
<mask id="path-1-inside-1_609_11841" fill="white">
<path fill-rule="evenodd" clip-rule="evenodd" d="M0 7.5843C1.61507 3.15918 5.86124 0 10.8453 0C15.8293 0 20.0755 3.15919 21.6905 7.5843C20.0755 12.0094 15.8293 15.1686 10.8453 15.1686C5.86124 15.1686 1.61507 12.0094 0 7.5843Z"/>
</mask>
<path fill-rule="evenodd" clip-rule="evenodd" d="M0 7.5843C1.61507 3.15918 5.86124 0 10.8453 0C15.8293 0 20.0755 3.15919 21.6905 7.5843C20.0755 12.0094 15.8293 15.1686 10.8453 15.1686C5.86124 15.1686 1.61507 12.0094 0 7.5843Z" fill="white"/>
<path d="M0 7.5843L-0.939388 7.24144L-1.06452 7.5843L-0.939388 7.92715L0 7.5843ZM21.6905 7.5843L22.6299 7.92716L22.7551 7.5843L22.6299 7.24145L21.6905 7.5843ZM0.939388 7.92715C2.41506 3.88397 6.29464 1 10.8453 1V-1C5.42783 -1 0.815077 2.43438 -0.939388 7.24144L0.939388 7.92715ZM10.8453 1C15.3959 1 19.2755 3.88398 20.7512 7.92716L22.6299 7.24145C20.8755 2.43439 16.2627 -1 10.8453 -1V1ZM20.7512 7.24145C19.2755 11.2846 15.3959 14.1686 10.8453 14.1686V16.1686C16.2627 16.1686 20.8755 12.7342 22.6299 7.92716L20.7512 7.24145ZM10.8453 14.1686C6.29464 14.1686 2.41506 11.2846 0.939388 7.24144L-0.939388 7.92715C0.815077 12.7342 5.42783 16.1686 10.8453 16.1686V14.1686Z" fill="#312F2F" mask="url(#path-1-inside-1_609_11841)"/>
<circle cx="10.8457" cy="7.58598" r="4.40825" stroke="#312F2F"/>
<circle cx="10.8456" cy="7.58391" r="1.72258" fill="#312F2F"/>
</svg>